<svg width="48" height="48" viewBox="0 0 48 48" fill="none" xmlns="http://www.w3.org/2000/svg">
<g clip-path="url(#clip0)">
<path d="M42.8571 3H5.14286C3.77889 3 2.47078 3.47411 1.50631 4.31802C0.541835 5.16193 0 6.30653 0 7.5L0 40.5C0 41.6935 0.541835 42.8381 1.50631 43.682C2.47078 44.5259 3.77889 45 5.14286 45H19.8482V30.7209H13.0982V24H19.8482V18.8775C19.8482 13.0509 23.8125 9.8325 29.8843 9.8325C32.7921 9.8325 35.8329 10.2863 35.8329 10.2863V16.005H32.4825C29.1814 16.005 28.1518 17.7975 28.1518 19.6359V24H35.5211L34.3425 30.7209H28.1518V45H42.8571C44.2211 45 45.5292 44.5259 46.4937 43.682C47.4582 42.8381 48 41.6935 48 40.5V7.5C48 6.30653 47.4582 5.16193 46.4937 4.31802C45.5292 3.47411 44.2211 3 42.8571 3V3Z" fill="#D6000D"/>
</g>
<defs>
<clipPath id="clip0">
<rect width="48" height="48" fill="white"/>
</clipPath>
</defs>
</svg>
