<svg width="141" height="56" viewBox="0 0 141 56" fill="none" xmlns="http://www.w3.org/2000/svg">
<path d="M28.3125 32.6094C28.0469 34.9688 27.2422 37.0625 25.8984 38.8906C24.5547 40.7031 22.8047 42.1016 20.6484 43.0859C18.4922 44.0547 16.1641 44.5156 13.6641 44.4688C11.4141 44.4219 9.45312 43.9062 7.78125 42.9219C6.10938 41.9219 4.78906 40.4844 3.82031 38.6094C2.86719 36.7188 2.32812 34.5469 2.20312 32.0938C2.09375 30.1719 2.28906 27.7812 2.78906 24.9219C3.30469 22.0625 4.21094 19.5234 5.50781 17.3047C6.82031 15.0859 8.375 13.3281 10.1719 12.0312C12.7031 10.2188 15.5938 9.34375 18.8438 9.40625C22.375 9.46875 25.1719 10.5625 27.2344 12.6875C29.3125 14.7969 30.4531 17.7344 30.6562 21.5L23.8125 21.4766C23.8125 19.3203 23.3828 17.7422 22.5234 16.7422C21.6641 15.7422 20.3281 15.2109 18.5156 15.1484C16.1719 15.0703 14.2422 15.9062 12.7266 17.6562C11.2266 19.4062 10.2188 21.9609 9.70312 25.3203C9.20312 28.5859 8.98438 31.0312 9.04688 32.6562C9.125 34.7188 9.58594 36.2422 10.4297 37.2266C11.2734 38.1953 12.4531 38.7031 13.9688 38.75C16.0625 38.8281 17.7344 38.3359 18.9844 37.2734C20.25 36.1953 21.0859 34.6562 21.4922 32.6562L28.3125 32.6094ZM45.2812 18.1719C47.5156 18.2031 49.4375 18.7812 51.0469 19.9062C52.6719 21.0156 53.8594 22.5547 54.6094 24.5234C55.375 26.4766 55.6484 28.6484 55.4297 31.0391C55.0703 35.0703 53.6641 38.3359 51.2109 40.8359C48.7734 43.3203 45.7578 44.5312 42.1641 44.4688C39.9609 44.4375 38.0547 43.875 36.4453 42.7812C34.8359 41.6719 33.6484 40.1406 32.8828 38.1875C32.1172 36.2344 31.8438 34.0781 32.0625 31.7188C32.4688 27.5312 33.8906 24.2031 36.3281 21.7344C38.7656 19.2656 41.75 18.0781 45.2812 18.1719ZM38.6016 34.1328C38.6328 35.6328 38.9844 36.8203 39.6562 37.6953C40.3281 38.5547 41.2734 39 42.4922 39.0312C44.5234 39.0938 46.1172 38.1641 47.2734 36.2422C48.4297 34.3047 48.9688 31.7656 48.8906 28.625C48.8281 27.125 48.4609 25.9297 47.7891 25.0391C47.1328 24.1328 46.1875 23.6641 44.9531 23.6328C42.9844 23.5703 41.4062 24.5 40.2188 26.4219C39.0469 28.3281 38.5078 30.8984 38.6016 34.1328ZM69.9375 18.1484C72.2969 18.2109 74.2031 19.1562 75.6562 20.9844L78.1406 8H84.7734L78.5391 44H72.6328L73.0078 41.2812C71.1172 43.4844 68.9141 44.5547 66.3984 44.4922C64.8203 44.4766 63.4375 44.0625 62.25 43.25C61.0625 42.4375 60.1406 41.2734 59.4844 39.7578C58.8438 38.2266 58.4922 36.5234 58.4297 34.6484C58.3828 33.6641 58.4062 32.7109 58.5 31.7891L58.6406 30.7344C59.0156 28.1406 59.7344 25.8594 60.7969 23.8906C61.875 21.9219 63.1875 20.4609 64.7344 19.5078C66.2969 18.5547 68.0312 18.1016 69.9375 18.1484ZM65.1328 31.7891C65.0078 32.9766 64.9688 33.9766 65.0156 34.7891C65.1719 37.5391 66.2812 38.9375 68.3438 38.9844C70.2031 39.0625 71.8203 38.1875 73.1953 36.3594L75 26.2812C74.3906 24.6094 73.1719 23.7344 71.3438 23.6562C69.7344 23.6094 68.3906 24.2344 67.3125 25.5312C66.25 26.8125 65.5234 28.8984 65.1328 31.7891ZM98.5078 44C98.3047 43.3594 98.2188 42.5938 98.25 41.7031C96.3438 43.6094 94.1875 44.5312 91.7812 44.4688C89.5625 44.4375 87.7188 43.7188 86.25 42.3125C84.7969 40.8906 84.1172 39.1406 84.2109 37.0625C84.3203 34.2969 85.4766 32.1797 87.6797 30.7109C89.8984 29.2266 92.8672 28.4844 96.5859 28.4844L99.6797 28.5312L100.008 27.0078C100.102 26.4922 100.125 26 100.078 25.5312C100 24.7969 99.7188 24.2266 99.2344 23.8203C98.7656 23.3984 98.1406 23.1797 97.3594 23.1641C96.3281 23.1328 95.4531 23.3906 94.7344 23.9375C94.0156 24.4688 93.5547 25.2422 93.3516 26.2578L86.7188 26.2812C86.8281 23.8594 87.9375 21.8984 90.0469 20.3984C92.1719 18.8828 94.7891 18.1406 97.8984 18.1719C100.773 18.2344 103.023 19.0938 104.648 20.75C106.273 22.3906 106.953 24.5078 106.688 27.1016L104.742 39.2422L104.625 40.7422C104.594 41.8516 104.727 42.7891 105.023 43.5547L105 44H98.5078ZM93.4219 39.3359C95.3281 39.3984 96.9922 38.5703 98.4141 36.8516L99.2344 32.4688L96.9375 32.4453C94.5 32.5078 92.7422 33.25 91.6641 34.6719C91.2734 35.1875 91.0312 35.8203 90.9375 36.5703C90.8125 37.4141 90.9844 38.0859 91.4531 38.5859C91.9375 39.0703 92.5938 39.3203 93.4219 39.3359ZM126.422 24.9922C125.516 24.8359 124.773 24.7578 124.195 24.7578C121.836 24.6953 119.969 25.5781 118.594 27.4062L115.664 44H109.055L113.461 18.6406L119.672 18.6172L119.062 21.7109C120.656 19.3203 122.625 18.125 124.969 18.125C125.625 18.125 126.391 18.2344 127.266 18.4531L126.422 24.9922Z" fill="#D6000D"/>
<path d="M130.922 37.0156C131.969 36.9844 132.859 37.3125 133.594 38C134.344 38.6719 134.719 39.5234 134.719 40.5547C134.75 41.5859 134.406 42.4688 133.688 43.2031C132.969 43.9219 132.086 44.2812 131.039 44.2812C129.992 44.3125 129.109 44 128.391 43.3438C127.672 42.6875 127.297 41.8359 127.266 40.7891C127.234 39.7422 127.57 38.8594 128.273 38.1406C128.977 37.4219 129.859 37.0469 130.922 37.0156Z" fill="black"/>
</svg>
