<svg width="48" height="48" viewBox="0 0 48 48" fill="none" xmlns="http://www.w3.org/2000/svg">
<path d="M42.8571 3H5.14286C2.30357 3 0 5.01562 0 7.5V40.5C0 42.9844 2.30357 45 5.14286 45H42.8571C45.6964 45 48 42.9844 48 40.5V7.5C48 5.01562 45.6964 3 42.8571 3ZM37.6179 17.8875C37.6393 18.15 37.6393 18.4219 37.6393 18.6844C37.6393 26.8125 30.5679 36.1781 17.6464 36.1781C13.6607 36.1781 9.96429 35.1656 6.85714 33.4219C7.425 33.4781 7.97143 33.4969 8.55 33.4969C11.8393 33.4969 14.8607 32.5219 17.2714 30.8719C14.1857 30.8156 11.5929 29.0437 10.7036 26.6062C11.7857 26.7469 12.7607 26.7469 13.875 26.4938C10.6607 25.9219 8.25 23.4469 8.25 20.4562V20.3812C9.18214 20.8406 10.275 21.1219 11.4214 21.1594C10.4576 20.5984 9.66748 19.8374 9.12158 18.9442C8.57567 18.051 8.29096 17.0535 8.29286 16.0406C8.29286 14.8969 8.63571 13.8469 9.24643 12.9375C12.7071 16.6687 17.9036 19.1063 23.7321 19.3688C22.7357 15.1969 26.3036 11.8125 30.5893 11.8125C32.6143 11.8125 34.4357 12.5531 35.7214 13.7531C37.3071 13.4906 38.8286 12.975 40.1786 12.2719C39.6536 13.6969 38.55 14.8969 37.0929 15.6562C38.5071 15.525 39.8786 15.1781 41.1429 14.7C40.1893 15.9281 38.9893 17.0156 37.6179 17.8875Z" fill="#D6000D"/>
</svg>
